<mxfile host="app.diagrams.net" modified="2021-06-24T11:02:51.914Z" agent="5.0 (Macintosh; Intel Mac OS X 10_15_6) AppleWebKit/605.1.15 (KHTML, like Gecko) Version/14.0.3 Safari/605.1.15" etag="ZfPXwKpxRWufUHd9LXeQ" version="14.7.10" type="github">
  <diagram id="0-vmZVJnues829Ka97bN" name="Page-1">
    <mxGraphModel dx="1424" dy="772" grid="1" gridSize="10" guides="1" tooltips="1" connect="1" arrows="1" fold="1" page="1" pageScale="1" pageWidth="827" pageHeight="1169" math="0" shadow="0">
      <root>
        <mxCell id="0" />
        <mxCell id="1" parent="0" />
        <mxCell id="ncX0ooX-KExpTdnl4g6O-27" value="" style="shape=image;verticalLabelPosition=bottom;labelBackgroundColor=#ffffff;verticalAlign=top;aspect=fixed;imageAspect=0;image=data:image/png,iVBORw0KGgoAAAANSUhEUgAAAMkAAAEhCAYAAADVpoReAAAEDmlDQ1BrQ0dDb2xvclNwYWNlR2VuZXJpY1JHQgAAOI2NVV1oHFUUPpu5syskzoPUpqaSDv41lLRsUtGE2uj+ZbNt3CyTbLRBkMns3Z1pJjPj/KRpKT4UQRDBqOCT4P9bwSchaqvtiy2itFCiBIMo+ND6R6HSFwnruTOzu5O4a73L3PnmnO9+595z7t4LkLgsW5beJQIsGq4t5dPis8fmxMQ6dMF90A190C0rjpUqlSYBG+PCv9rt7yDG3tf2t/f/Z+uuUEcBiN2F2Kw4yiLiZQD+FcWyXYAEQfvICddi+AnEO2ycIOISw7UAVxieD/Cyz5mRMohfRSwoqoz+xNuIB+cj9loEB3Pw2448NaitKSLLRck2q5pOI9O9g/t/tkXda8Tbg0+PszB9FN8DuPaXKnKW4YcQn1Xk3HSIry5ps8UQ/2W5aQnxIwBdu7yFcgrxPsRjVXu8HOh0qao30cArp9SZZxDfg3h1wTzKxu5E/LUxX5wKdX5SnAzmDx4A4OIqLbB69yMesE1pKojLjVdoNsfyiPi45hZmAn3uLWdpOtfQOaVmikEs7ovj8hFWpz7EV6mel0L9Xy23FMYlPYZenAx0yDB1/PX6dledmQjikjkXCxqMJS9WtfFCyH9XtSekEF+2dH+P4tzITduTygGfv58a5VCTH5PtXD7EFZiNyUDBhHnsFTBgE0SQIA9pfFtgo6cKGuhooeilaKH41eDs38Ip+f4At1Rq/sjr6NEwQqb/I/DQqsLvaFUjvAx+eWirddAJZnAj1DFJL0mSg/gcIpPkMBkhoyCSJ8lTZIxk0TpKDjXHliJzZPO50dR5ASNSnzeLvIvod0HG/mdkmOC0z8VKnzcQ2M/Yz2vKldduXjp9bleLu0ZWn7vWc+l0JGcaai10yNrUnXLP/8Jf59ewX+c3Wgz+B34Df+vbVrc16zTMVgp9um9bxEfzPU5kPqUtVWxhs6OiWTVW+gIfywB9uXi7CGcGW/zk98k/kmvJ95IfJn/j3uQ+4c5zn3Kfcd+AyF3gLnJfcl9xH3OfR2rUee80a+6vo7EK5mmXUdyfQlrYLTwoZIU9wsPCZEtP6BWGhAlhL3p2N6sTjRdduwbHsG9kq32sgBepc+xurLPW4T9URpYGJ3ym4+8zA05u44QjST8ZIoVtu3qE7fWmdn5LPdqvgcZz8Ww8BWJ8X3w0PhQ/wnCDGd+LvlHs8dRy6bLLDuKMaZ20tZrqisPJ5ONiCq8yKhYM5cCgKOu66Lsc0aYOtZdo5QCwezI4wm9J/v0X23mlZXOfBjj8Jzv3WrY5D+CsA9D7aMs2gGfjve8ArD6mePZSeCfEYt8CONWDw8FXTxrPqx/r9Vt4biXeANh8vV7/+/16ffMD1N8AuKD/A/8leAvFY9bLAAAAXGVYSWZNTQAqAAAACAAEAQYAAwAAAAEAAgAAARIAAwAAAAEAAQAAASgAAwAAAAEAAgAAh2kABAAAAAEAAAA+AAAAAAACoAIABAAAAAEAAADJoAMABAAAAAEAAAEhAAAAACALL3QAAAK2aVRYdFhNTDpjb20uYWRvYmUueG1wAAAAAAA8eDp4bXBtZXRhIHhtbG5zOng9ImFkb2JlOm5zOm1ldGEvIiB4OnhtcHRrPSJYTVAgQ29yZSA2LjAuMCI+CiAgIDxyZGY6UkRGIHhtbG5zOnJkZj0iaHR0cDovL3d3dy53My5vcmcvMTk5OS8wMi8yMi1yZGYtc3ludGF4LW5zIyI+CiAgICAgIDxyZGY6RGVzY3JpcHRpb24gcmRmOmFib3V0PSIiCiAgICAgICAgICAgIHhtbG5zOnRpZmY9Imh0dHA6Ly9ucy5hZG9iZS5jb20vdGlmZi8xLjAvIgogICAgICAgICAgICB4bWxuczpleGlmPSJodHRwOi8vbnMuYWRvYmUuY29tL2V4aWYvMS4wLyI+CiAgICAgICAgIDx0aWZmOkNvbXByZXNzaW9uPjE8L3RpZmY6Q29tcHJlc3Npb24+CiAgICAgICAgIDx0aWZmOlJlc29sdXRpb25Vbml0PjI8L3RpZmY6UmVzb2x1dGlvblVuaXQ+CiAgICAgICAgIDx0aWZmOk9yaWVudGF0aW9uPjE8L3RpZmY6T3JpZW50YXRpb24+CiAgICAgICAgIDx0aWZmOlBob3RvbWV0cmljSW50ZXJwcmV0YXRpb24+MjwvdGlmZjpQaG90b21ldHJpY0ludGVycHJldGF0aW9uPgogICAgICAgICA8ZXhpZjpQaXhlbFhEaW1lbnNpb24+MjAxPC9leGlmOlBpeGVsWERpbWVuc2lvbj4KICAgICAgICAgPGV4aWY6UGl4ZWxZRGltZW5zaW9uPjI4OTwvZXhpZjpQaXhlbFlEaW1lbnNpb24+CiAgICAgIDwvcmRmOkRlc2NyaXB0aW9uPgogICA8L3JkZjpSREY+CjwveDp4bXBtZXRhPgrhNnm0AAAqwklEQVR4Ae1dDbRcVXXeZxJphAABAgRIwnv5/3skL4T8EH6KokKhaNW2tlJr1VKqdnUt66quVqv9cdVWrdRWXQuWrVprC/61FKhS+TNIAgnkPy/k9+UHEuCVBBIgJcmc7n323vMmLzNv5s27M3PvufusNXNn7j333HP2Pt89Z+9z9t7OYwJLRgGjABw/fhxGjBgBt9xyC9xxxx0wevRoePTRR8EZSKx3GAWYAgqSvr4+WLp0KWzZsgVuvPFGKBiBjAJGAaYAjSIElLFjx8Jtt90Gs2bNgn379tlIYh3EKDCQAgQUSgSao0ePGkgGEig1/4VRoT7ILEutp4BOv0a2/tH2xEEpQOAoFgHe8Ib+bPg2gwLOjA0s/TRp0S8CignuLSJ2zcfoyKFA0P9048Bz+r9moZYhCQoYSJKg4nDLUEBg5/ebN0Px63cAPLYK4KVDAKNPBeieA4VbPgBu0UJAyZKfZkAZLtXrvt9AUjepmpSxrNMf/+xfgf/zL+ODXqnwsFHgPvx+GPGlzwOMGsVgMaBUoFPypwwkydO0/hLLAfKe94G/865wr+teAO4jHwSYMAHg4EHwd3wT/E8fxGtFcEuWwoif/AfA6acbUOqn9LByGkiGRb5h3kwCOQrox0sAOQXcZ/4YRnz2U/3TKnoEjhjFb30Hiu//GP55mYHy4L39wr2NKMNkxOC322Li4PRp3lUFyKf/XEaQkVD4x79lgNA10nDpB/8XfvtmKPzku1ifM8Av/zkc/y0caQwczeNPWckGkjJitOwnTbNwBCne/1Pwf/Wl8Fj3mU9C4SO3Ahw5wupeUgGXfwgob70WCt/9R8w/Evz3f4AC/u0MFAKVpaZRwKZbTSNtlYIJIDQCvPoqHJ+zBPzOp8H9yjtgxA//HXB5d/D1EAIQCu3HP/bH4L/8FXzA2TDi6UfATZtq8kkVcidx2kaSJKg4lDJoCoXp+GdQk4UAgTdeACNup9EBU60FQxpZMI34m8+Bm9mFv16E4ic/Hc7ZV/MoYCBpHm1PLlmmWX7LVvBfxKkSpsIXPgG4o45HkVoyBl2n0QbB4r7wF3g3Trt+dDcU7/1vHp1UWxZKtq+kKGAgSYqSQyin+Gd/ibkPA6l6gxwi4KmrCBpNECiFG64H9+vvxFuK4D/3xf5bDSj9tEjol4EkIULWLIY6L44EfuUq1Gb9CLMXwH3+s3ybTMFqlqEZaFqGqfDZP8Fv1nYV7/o+jybhin0lSQEDSZLUHKwsAULxb2lFHbdfX3N10FaFbSYiawx2+wnXZNrlZszAVfjfDJf8bV8/IYv9SY4Cpt1KjpbVS9JRZOMm1GhdhfkOw4if3gfuzW9qXCulZe7sheOT5mGZR6Bwz4/CNEzlluoVsitDoYCNJEOhVqN5dRS5/RtYAsoiCxYxQKi8WsJ6tWfSfQgU19mBsslNIZe//Z85t0zH+I99D5cCBpLhUrCe+2k6degQ+K/cGXK7j/4u30WaqgRS4aO/h6WcAv7u/wbSnAXg0UhjKREKGEgSIeMghQgQiv/0LczUB27MeCjc/Bt8w1BlkYGP0dHkiqXgFs7Hq0eh+Pdf5VxDVQYMLNv+lyhgICmRogk/6G0uUx//XdQ+UfrD9/ObPqFRJOzvwmLdH30Uv5Gdd90HcOAgb2mx0QRpMvxkIBk+DQcvAd/2Qe37xArMNxoK73k3509KblB18NveAm7cRPB9u6F4Hy4uUrLRhOkwzG8DyTAJOOjtKrDfwQK1u3YxkNo2aJ8aFdgHPpDKoVHpzDMB3nlduOq/8e2Buez/MChgIBkG8Qa9laY6KrB/B6dAmNz738u3JDWKcGmlKV3h1g+FM/6hlSzA0/NtyqVUavhoIGmYdDVu1FHkHpz6vLYPM58LhZturHFTg5dlVHJdc4J6mdTMtKcrJJtyNUjU/tsMJP20SPaXCuz/eU8o133gBja5palRUlOt8hqLIsC9W9ZMvi8gGa4GrfwZOf1tIGkG42mKQ0BALZO/k6ZauE/rV2kzYhOTgNLdeD0+5DTwq3DKtWYtP9CmXMMivIFkWOSrcrNOte6mUQRX2Mfi2sh1b2X5oFlvdhHg3exZaANP21SKUPz2v3IFbcpVhVH1nTaQ1EenhnL579FuX0y/9kt8bFFndR+8mZ/344f4aAI806HBbwNJg4SreptotfzeZ8Df+0TIVvi1d3H2pLVaAyuhU64rr8ArOOXq2dw/5RqY1/7XTQEDSd2kqjOjjBZ+7Tq84QVw46eAu+zSOm9OIBuClGze3UIy7z0K/gEZTVo0iiXQgtQVYSBJmiWq1fqXf+OSr7oM4FR0VdosrVZ5/UkuUTBcf2244r8hckmzR7HyekT220CSNENFvevvXhZKdu96Oz+hVZ1UnlMI2rQCTrl2gt+123YGD4PPBpJhEO+kW2WtIjhmCAuIY1irdVLGJp4QkAYt11TcAkMLi/fwin9plGni42Ms2kDSBK76h2UUuQmtEGmqpesmTXhWxSIFrPAuXMDE5B94OBx1RzL/se96KWAgqZdStfKJVitke+Bn4eDe+ia+S+WEWmUkfN0tXhhK9D96FMM4vGRTrgbpayBpkHDVbguq39W00n0auF8ke3ZMrZJH+Gml5xXehtvn0ciLjL38GtK2WWqEAgaSRqhW6R5V/f4XensnbyhTLwaSC1o+1aK6yep7iGOyeE6obfFf/z0cTS5hMgzl20AyFGrVkdff+xPOdf01fGzTVEtHL/du0a6teIrr0+pRrQ6apT2LgSQJDqk8QvP+JzeGEgvv4N242lmTeEwjZbiw+v4G8Ou3gEeXRuYkYuhUNJAMnWYn36FTLZz3+/29eP1cgBnTTs7XhjNu8iQgOxMKMVfaFdyu0a0N7U/ikQaSJKgoZfgVvFfLXXcpuAsuaM0qe7X6k1xCoRrouHh+yOXvu59z25SrGtUqnjeQVCTLEE9Kp/P3SidctGCIBTQpuy4sXvcWfsB9vH7TpKdFW6yBZLis1YVCcj63jFS/BSjcwA4Z2i2P6PMLbyYlAu4KPvg8yiYbTC4ZIs8NJEMk2EnZZX5ffPBhvIT+rjD6lJvfzdnkTc5/2vBNzycQoycV1z0TK/A6eAxBF5LJJXUzxEBSN6mqZKROiMk/ujwc3U2Xp+tNrWB4G6uk/YqVoZ72VT8FDCT10+rknKr6pSuPPxmuu+t4i3raFu3cFQheSg8jSEhVbdaKTI86vg0kdRBp0Cw4pfHP4Vx/GYEE47DPJ/tyTGnRIEk93JzZWKmxwcMjbZ2xVD8FDCT106p6zk09eA0dPoy7EP1etdAKsXqN+q+QXIK7gt3FE1Eu6Qjn/Y9FC6dTsf7c9qsCBQwkFYhS9ykV2sN+LbxrzhSWR1phhVh3JcsyXrko/PEPmSq4jCo1fxpIapKojgzLHg+ZSvJIHbe0NItOuTAYaUhrMTQ2JZNLmA41vg0kNQhU9bIK7X24DX3j7pDNhfUI/JkWeWRA5V0XySWjwe/dHTzdD7hsf6tQwEBShTA1T+tU66k17Ov3jRfgvP/imre1M4M77zyUmQgouF6ybj1XxeSSmiwxkNQkUY0MwcAKPcZfPRfgrDHtsR+pUcWSfQkJ8Qt5odM/xlPEtI56tZrUyusGkkapLVMqv+wxLmGBrLKn/M3sLmfhHe5Hk15KBBxLg1LAQDIoeQa5KJ1LvTS6pUs4c0rlER0x3OVUz1Eol+wN6zuh0rJrYJDW5vqSgaQR9utWFDJiggP4wTBvS+QN3Uh5rbiHQI31dp0duJ4zDp94BHzYb4Y/Uz76YQ3bmgwkjZBfOpX/GU1ZjqFR01QOx0bgycL05WrxorJC5BIbSQbtBQaSQckz+EXe1IgkvEb2RQ2evf1XBdzuSqnvatw2T8nWS5gOVb4NJFUIU/U0vXWpU9Gq+vrNmK0IbrFMtTIybXGzZobm+WWbWC7JwuhXlSHNv2AgaZDG/tl9wbkCCcFuOk63KKVVaOfaleoXFhVxXYe83sPu3XrVjlUoYCCpQpiap3t3YZZXMLTCeHBzL6mZPRUZaMSgEXDsWJSjeOHTP7EqFVVLcyUMJEPlTkloX8Z3pn1TY7X2LebdyiU/wRmZKlZrTjPPG0gapK7/n0f4zrQ4fai3HTIldFdfyXesFOE97VPFetvXhHwGkqEQVYV2OmLcD0qFa67mEjLWydyl4mZoLxqMbUYFhKyjcGPsu5wCBpJyatT5m0K9+b7nMfcodEI3vc670pXNXYgbMjup7i+Df3orV86mXBWZZCCpSJYqJ1UewYCdtGLtuudg+OlzqmRO6WkdMUiNfSk704bNW1Ja2XRUy0DSAB/8GtlmjiA5YYdtA2W15RYdMWbLeokEHUq9CrstxMIpdZuem83HqtyhnlFmUbi17CbXjdv7MflH1qZzi39KSGsgGQojZJ1BPTWWnD4oeIZSVjvzSn0LYefyGWg09gL450nGwmT7uJgOZd8GkjJiDPpTOo/fTPbhB/FzBrhFGH46i0nlElpUHH8etuAYaJxH2xF8MkMNJCfTpPIZFdrDzl/AFetOVG6hdovAQ50uq+kyFt79Q7Luk9V2NLHeBpJ6iasjyVoR2iWcQb23py6fgN695U1ctW07+Ji1qWMLCGsgqYfIBBBSmVLavC0c3NVXhGPWpyfsQQWbQoujFqGXeTrg20AygCBV/+KUit2Z0hoJTrc6cbqV5aQjxoQJ2Ap0f4oRuvzuPVluUdPqbiAZCmn37cPczwHQNvPJk/hO7WxDKScteXGEDO5PuwgoqAreyqNk1kfHpMlrIKmHoiq0B5t2Etox/PT5qBVKqzvTetpEygZdVJzF9jB+OYezq+f2POUxkAyB2/5B0QDNFCOrIdyb6qwaBPXhn6e6mu2qnIFkKJRfiSvTmNxlbIsxlFtTmVemiqWdzNue4WpmeQrZBEIbSGoRVTVbr76K5rrPhtzuF6+KqjO5S7qwPeiL6+ABi/VeoT8YSCoQpdIpjzHa2cfWabhKfVGlLNk9d8bpqK0jc16M9b5OjLBUXsluqxKruYGkFilVaA+an9c5QCcG6owi6fYUOi4RI6ynbdv8QN4aSAZSpMp/v4G8NWJawDtnM63Z4pbwt7wE3GzZ0bxqNZ83uaREJQNJiRRVfmhnCdMtFNonT6qSMeOn1cKSAvyoalu24mS8ZcOuvoFkMBJSJ6GpCHWaVbzSDnNJyI0oyUvAdc/DRlGAn17enhJRE4fbFANJHRQMjugO7sWcuD0+RLHFnzrC1HF/qrOIXOI6O8CNwfgquG2+uOqpVFe51ZUzkNRBcb9hY8jlxp3Nmi0dYeq4NxNZVJPVLYukutNZz2eiEc2rpIFkMNqqZutRCdRzKYVSiziJDzH/+EpupMkkgQ4GksH6vHaS9azZcotkpT3SN2xpJ0EvTS0xmbf5QAYDSSBDhS8CCFkeUtqxm4+XLeBjbN8qvE+dElrmV+8CTzueSV6xZN5SavUBvwvDOffswWwjwV10IWePRWgf2HiMzhvMAIK3eWozpkhHTW5cfd82klSjk3aOZ2i/1kEMoYbe4yey3UW1WzJ9HkdO2v7v5k0KzfDbtme6OUlW3kBSg5q+p4dzdOJ+LdqOQtOw2KYh1B59KXRODO21ENb9HcNA0k+LE3/JlMo/xdvjYY5s29DOdGLuaP65haKcWC0OL6JpWeMNMZDUot1yDnLjYltpH9hulbNm8svALxdT3oH5cvjfQFKD6X41C7C8bQMza2eqcV9WLxeCBu8UrP5h8Dt7eWpJU8wcJwNJJeaL3OHX0FTrJfxgXMSuyBcSVc4i25JxpMVD25LVa5g6kU8xuZHVvw0klWgjncLvoEA9GGKBDJJOP51zameqdF/Wz6lSYqHEgAwuXbPeqOHX30AyGA3FOwrM4xAF0TuT1hGjm0Hit5hcQt3DQFIJJKrZ2iwRoC6RYDfaiSrdE9E519nBrdkoVoo5355iIOHu0P+tUw46rhdvjVMn91+P+Ze8HFxwMXQK+FVogEWuT3OeDCTVOsBh1O6sp5HkFHBTBCSRa7aUFGx9iXFLcKeBf/GAns7t0UBShfV+L/mgOox7mc4BN1cE2Sp5ozlNSgmywqS4JVNxHxcm/9jyaJrXaEMMJFUox+pftGkffxbvBla77yr5ozs9Z1poUik+ZE7ksUp8NJAMpIqqf58UryHzRWgfmC/y/25BN7dQvcRE3t7BmmcgqUYdibCrwTerZYvuvMpdOsXcVeb6lJQZOUwGknKmUydQdedeDLGAyS0UQyvtPOX5I/7tJnP8Fd+zD8imJrqdz0PgnYGkArFIaPdb9+OVkQBqaFUhX8yn3Pnj0HvKeGxiH8Ae3r9W2k4fc8MrtM1AUk4UFU5Dp3gR3NgLOQ5JeZ48/KYR9Sx0LzST/AOjhotGkhwnA0kF5vs9Mg+fOqHf0KpCvihPVTLAyrnwbiAp7+kid/iVbEMCYqVXcvtZnjcHv90M8cMlSozYzQSqsdRAUokyqtnSPVsx7/yt1H5VUoS4JZhhjbh4rZQ3B+cMJBWY7FcM8PurnaZC3phPcXCfkRiZF4X3Awdza4BlINFeTsIqjhgUhhpeexnPvgG3o0TmHFvbWusoI6fr7MCctIcLo3xtZFev+Cd3yUAygOVsjfcKnh0DjvxQUcrbdIvaLAuHrnsS/ikiSMRrjGoAKU9OkoFEGa3M374jnHFXzsrt9EJJEo7dvC3HawQsAc8JeSL/YyAZwGC/SeSRLrFGHHA9N3/lpeFmkfcU7Cbbe7nptCMhZ8lAogxX4XxHbzjj5uBIQklHGP6Xv+9gS1ME6EFT3iNHcjm6Gkio24vQDhiGuqTujNmlaT1Ql5eGu5g8OmL46q3oRPslUmjkLxlIynjuD6E14n7as4VhqGWDX14X0JQsZKXoxozFv6jMIE/zOUwGknKmh06ALoTGnIXOsdknbvnlXP0mjR4ZmpErpQnnhqZ7jYCVK0KYtxRmt8gd/smn+D91ilNP7Y9Cm7NOcVJzZ/H2FP+UGKLlTE6zkaSsR5TWArrYH27ZpVz/LBmeScSvvBHDQFLO8YF7tsqv5fG3avxU0yeGaHmT0wwkpNnSztBLAXvQGlHtu/V8HgFS1manYeK2vtAfJi5Hi4oGEuoMtGcLhXa/80XuGpMmlXUR++nOJcGdPuiDa3f+rBQNJCqE7tyFneB/8XM+arfQKs9SPwXQStEtoBfHMfCy2Np/Mf5fBhLhsd9LYZmL2Bk62HQ1ft7XbqGqgSnnNBldt+XPibaBRLqKX7+Rf2lnyJszOqHDSQeVPSaSUwi0d98oe9tyJK8ZSJTZm8WDel6cY5+EhionxEzAzZjOGdbJlvkq2WM8bSBRrq5l5rvODj1jR6KAvER4NzBaKfag7KZ73XJCIQOJzLv9VpJJRvaHfdMRJicdoWozdSTpIruSUfhBK0WNgKVTsao3x3Eh3yARJvvt25Gbr+EHYyPOEjsS6RxxsHmYrSA6jULajB+HBaGGaxvRC5NqBvlftN/5Bonu2Vq3ARl8FANq4m5X7AyWqlBgLsslfvXaKhniPJ1vkChP1TRVA2rmZBqhza951BGjSwzRemlNCVNO6JRvkAiT/XaKsotplmhwtFPwWfsWCpQ0XDt28xl1Lh45hfILEgKI2msL09nPVOQcH0bznFpr9uBLhWIp5kRuyy9IqLMQk4nZxHRM7sILwtG+BlBANX0d5ED7DPB9+8EfRLrlJOUbJMhkYrbvI7NUdMJ2AWlvMGmn4H/2LRRw55+Hyo2z8d/rAM/wjuk8ECf3IGFmo2ZrPHaAzo488HzobaQRl7bpkLXmRH6R+J78rLznFySq/l1P6l9M485hGcX2bDE9qn1PkQhYQW2OmXKg5MgvSKQT+E3yRtSNjdU6h50PFHDz5zIlVsvLJQd0yT1IYNPTJzI/B0xvqIkqp82WtZKdEuhIzzdUaDZuyi9IlLnbxdJOma/ns8G/ltfSTZf47ntfBIotGTSEkS8q5hMkxFQURkMA0Z1kjYjq3zmzW97hsvhAd/ZZWG3cvgOHUMMlo0kWGzKEOucTJEqgYK+NwWmQ6e700XrWjoNR4Mwzcaf0BMxxtN+UN3LhPZ8gUc1WiCp7DFx3BwcQHaxz5P0aqYF1WjV9ElNDnUJETpt8gkSZqkxWzZZMw/SyHQdQgNTjlGaIXNKTD1PefIJEhHOvTO6k7RaYtBPwP/seSAEaTTC5DvGTvFFMnuV8uBjhVz5BoowUJrspMn2InNna7IaP8nJxwS9ZAfyq3v4pWMOFpv/GfIJE5teBycgjFzbu4Q9T/9bXY8N0C7eooJ8y38fawZK8Ul8JmcqVP5CI8Omffx4ZRR4bTwOYLnYkmWJdGyorLxd3Ae2WRrqhKS9siH/lPX8g0b4VtqOQIDoaNzdelDsPIEqGRo9uoezhUldMEauB8wcSVf8Kc92SKY32k3zfN4fDU/gtW6OnQ/5AIiwtRdmdyQFqoud0Ug2Ul4ybJnTrlW09SZWfwnJyCxLYK2EWQghm5EzE04Wm9DuNWbITQUJyXsT27vkCSTkzt7LJLqj7zqb0pAgLVTVwsOJENfD6Z/s1XBE2l5qUL5AIE0lt6Xv2h+Y7M9kVqgzxEOiGhmrwHEDQFA7x/gxlzyVI4ACpfl/ADwamuQg1W5aGRgEckUkN7GaKKe8+euFginTKmkuQ+N3k9xcXEWeiXTs6N7A0BArQWomC4aLz+Ubd3jOEYrKUNV8gUeaW7NrJLgLTkSO58SHFDU7oexqrz2N3e5ovkEjfKAXsUbedtmerIdRwOAa8tSfutZJcggR0Y6Pq+hvqIjm+STVc6oF/h/jginTvW75AokyUeORO7CJsY2NjgHdds8ONvu8gRi7ujdbePT8goTUSnFZ5tEb0+8lkF5s+hwLTWGqYAuSsDqMVAxyOOnR1fkCiQvsOWkR8GT/nml07UqGhpDIcgiREK8ZCfMRRefMDEukNPpjsSijq8CZsqJvYTTQyUwqmz0Xwe+L1nJI/kNDcmdJsttMOJrv6ZuQr9l0PBdTUWaMVb93Od6ncV08ZGcmTH5Ao89T+Qa0RM8Ko1FVTXiyus4OrpmrgCF84+QGJMm87hzIrMZdZbN9DpYC8dNxkMr7C0NWre3lRlsrRqRj9jiDlAyTKNFxZ96toWoChqANz8aeOMBEwsy1NmDwJH0taLnR7+hIpROJL+QCJ8I2ZSJsbkakdHfFxs5UtopEZXz5ho+MYDIAEKLyvXdfKGrTsWbkCCTstQM0WMtXs2hPsY9PGc2G60VHV7Qk+op1F5QMkwjSvQvtMcUbXTsrH9OySvfu2mFpVaks+QCLN9WvX8y+zay91gGH9kJdPaaPjFgPJsOiZiptlwavE1MimBe2isZt3CT/6GbRSJCVJZPbu8Y8kyjRi4y5ZFdaAPe3qVbE8VzWD55HhGtq7o0k0O/2LpYHcjvhBIvzy+/YhEykUdQHcRRdK63PTfKFCkw5jydadQlcfAFC3p016VDuKzU8vCcwj9S8yMzC1HeSO85luLAZBmkmuT4+B1/juEU1l4weJMit49ED1LzLThelBnB22pa2itRLaw0UyyCQNx7CppVVoxcPiB4lQ0W8Q5pHzAmWublVpBaVjf8bFE0IL/dNiyqvySgTtjh8kwiy/Tryfa8CeCJiXpia4SR1cnQ2b01StROoSP0iUTGGXKgrts2fqGTsmQQEdMVRjuHVPEqWmqoz8gCQwr4ixSMSORJmbKnZktzJubhdWHtXAZO/+HMZ+kb1d2W1Rf83jBgmtkSCzgvoXmRfUv93z+ltvvxKjgDuL4ruPwc+rAFvjcjEUN0i0C2zfwcxD9a87k3asWkqMAqr8GDUK47vTnjhUA4fQ3/hTNYuJPaw9BcUNEmESMw3jtXehBgaZGZIytz10j+upNGJTmiUxSxQkep6vZvY7bpAIW7zaX0+fxGciYV5qep2OGBrfXTc6RvIiihskKpz3sskuqGZLmZqaXhZHRdyEi7ghW2h6iymSjY5xg0TfZMK0EhOZhfadMAVK8d3XIEheRQE+khQvSHRKhczyxDRKE3hVmP/Yd2IU0BE7eKAZDfDac+APoVfHSFK8IFEG0RsNmQaAJrtTJdKuMlXz2DERCrjODnBjSQ1cBAgaxUSKbXsh0YPEb346MC3YtXd2sFGQTsPaTv5IKkD0VGd1HbQbGN2eqlOICOS/eEGi6l812Z0iQmUETEs1tILbUwSJbihNdWXrq1y8IJH2+y2y+qtuTeuji+VqkAJu/ly+U9XAKhs2WF4abosXJMqc9bxFXmNppIHoUdZB5Tzd6Ej27pQiUAPHCRICiK6s7+9jZinzlJl81r4TpoDrmBhKDPbuaDIdNjom/IxWFxcnSISKbNfO4ZOVea0mcO6edxbZulPAVrR319DVGSdC1CCBveQdBeO1vxFNdtEO21LzKeDQf0DYI0cbHXWnQ8aVJXGCRDVbz5J3FIzXPgM1WwaS5iJE1cB0nCIeMnXPXHOf3PTS4wSJkm0jC+3QIb5qSZdvayRKneYdVS5Rk+mMy4FxgkSY4jeKvbUwrXm9wkoup0DJRHp9HPbucYJEOSZMKjFNz9uxORSQl5MTE2m/fm9zntPiUuMEiUyp/Hp2SuCm2J6tVvYr10Whv8m47VAU8d3jA4ksIvoQQJR2oqJZ6Xyza28JSFTeO/NM1Caeh4/EyGJPb2nJo5v5kPhAopqtTT2BSYFZp5/ONFQmNpOieS9bdzp0TWZKqPIkw2rg+ECinTTs/sU/yixlnl63Y3MpMHN6KN/v6OXnZJj+0YLE72Z5BLpmMZMy/CbjBmTkW+hcigGzS/hAe7gymuIDierkN5EdCS4kTqIQypZaToHxZJqA3WsTRr/CqMdZdlYXF0hoSCe5gxYNt8sbbMrklvePXD9Q1cAX00bHU1C79UzmQ1fHBRLtnS+9hMwhHT1qtixgj1KlpUfX2YF75sirI2oYkR9ZTlGCxPfR9vhXMBQ1BpeZJg7TssylLNVdR3JSA48nkKCV4pOrs9SCk+oaJ0h0z9AFyKRTT+Xpl6l/T2J+00/MYefkfp1EPc6o8iQukAgT/MqnmP9TTWhvOhAGe4A6AxQlymBZ03wtLpAopcW+2i26VM/YsZUUUOG9azY/devOVj498WfFCZKdotmawQtaoGrhxMlnBQ5GAXcJ7eFCmaQXZcQDBzNr7x4PSEj9iwtWFEDGbxOTXQ3YMxgn7VrzKBBMedFZ3Wv/izzB9ZKMpnhAogx4Bk12kSkUitqdT5vsLLWLAmzKS3Lh6+D3yLb5DArv8YBEhfZgV/06B5RBNaSlNlBA1cB0jMCUNx6QaF9Qu2qKRUL7hcxkVynTnuN0XqcqRT/OoHwYD0iE+H6VqH+Dh/P29At7aj8F3BR8WVFavYGPGfyOByRK/CeZGe6y+XrGju2ggKqBQyDXkeB7MJBSRkf1OECiGxspFgluqAMY2b8dJYPDezv6dOLPlB0O/aa8hzFOzFp+TMZsS+IAiXDYr1mHv17FD8YimSeOm207ilCnDQdRy7uZpOEqQsl5ecY0XHGARDVbISZGUUIlI18y9sZqQzduzSO7ZVHxiVX8vIzxJQ6QCNE5YA82abHJI63p/TWeIi8vt1C2B+2hqTCmjI3ucYBETUPDRjocSbplqpWxYZ17UITfuvNhJSpVDh3K3PaU7IOERhF6M5Fhzxp2X+OmiZ+tCPtbppqkGq5gQn0G+L27wb94IFNNoMpmHyRCciK+76OtD+j635zRCVXScXCTJ4HrpFiKrwPsyN6O4HhAEvxs4VSr81xwZF+dMeEwHd054VrQCK9rI+PHhcK9Cu8ZmgpnHyRKbI32Ol0Mreh8xgTEhLtouooT2x6/WtZK0lW7QWuTfZBI8/xjT/CveV2DNtgutpgCKpfMEf9n68izZrZS9kGiK+pbeK7rFi9kDuj5bPEj2tq6q64IbaNYikCOOkgjmZEpcbZBIpotco7ttz4bmFBaaY+2u2WzYe5sdMohsRR5PQv/6lQ55U3KNkiUyMGGBM1DKTZiYEbKqZ7H6pGLoSVkTo2xFDPmaT7bIJHOpnuC3FJ0PEAe5HXtJI+dMW1tVg0X1WvOjFA7vzFbckm2QSJyR8n5mS4i6giTtg6T8/o4McCCVaLhyojcmG2QaKdbuzH8Uu8cetqOKaGAgMEtoD1cBfDLkF8ZGu2zDRIZyv0TZGiFNiTzLuFekZE3VEq6cMuqwbEr0aMmHIRSaIwMaLiyCxIhLhvyHEbCj8awb93McFtEbFnHr+tBxA/i11j0zRxW3lF4/9mjfGsGpsbZBYkQV23aXTduasyQ7r2uzhVjpqVsxlDanpKBNmYXJDqSqOOHJQsyQO4cV1Feau5qXlSEHg6ylAXvmtkECQFkFIVAxiReONxCAUkGhm+ueD6/nfgH9is288q7TsVSTI5sgkQI6nehfcJqsiFBoX0W6+Cz8GZKcX9oXtVUmTIV/XDhoi+8tg/tS8RSsXlPTaTkTIOEbRNeRmGwA+3a2Y46EapYIclTQDSR5HrWzZsUyvc/X578c5pQYjZBIlOq4v0/ZZLMxe0ONP1S24UmEMqKTJACi9nm3d/zYy405VPkbIJE+fWTh8Ivd82VesaOaaaALiq++Rqu5Qpc3yL5MuVayeyBRIgaQiys7g3Edr98AxNd5738z75TSoHC5UuwZqeBP/gc+OUrUlrL/mplDyQyNPsHH8ZW9IEbOxFlEooZbin1FFBN1lljwF1Ddj9HwT++kqud4ilX9kAiPcE/tYZ/3XC1BQ8VmmTioGC4ammorn9oGVc7xbOA7IFEfWzd+z+BuG7RZZnoG1bJEylQuPJyPIGbHe9FDRf6cA7+CGSB+MSc7f+XLZAIEUm/7nvIJuE0HLavYiqm+E3UfjanqAYqvF9FypZz8PNi6uWSbIFE5ZH//C8k7jF0HzQe3AxcRCTw0HzXUvopoHIJzgjcdawKLv7wbq63TsVS1opsgUSI55c9hr+w6tfKPqCUEdWqU4MCAgZ30y9xxlUiX9Iok8IpV3ZAQsQjeYTmr0+QZRs6onv7jUzklL6BanSV/F7WKdcVJJdgxGS0Bwom2CmdDWQHJNKl/MZNGKiHdpCibcJcM7LKMtLcjOngaC8XYICfDWxdmkYPKtkBicojP74/9At37TxeH7GtKNnDCY0YxDeaGVzJftL8XT/kdqRQAZMdkEhX8N8joR3AXStbG+S8HTJGAZ1yvfPtoeL+zkdSq4DJBkhEHvHrce66nlS/BXC/chP3ihS+eTLWXdta3ULw7DgG6/AcFIPWEn/SKJOilA2QyFSreNcPkHSvo5OzJf2BQ1Mq7KWIx+msiqqC0U+a+8A7Qh3TOuVKP0hUq3XkCMA3v4fERK3We3+VGZ+yN046e2OKa6Wq4NKU6z7w+/albvU9/SDRUeRb30FLtm3I8XOh8JvvYc7bVCvFCKijaiS440uwcMP1qOUir/OHofj5L/KNwvc6Sml6lnSDREcRHDH8l74WiOE+/lsAuIvUDKya3jda8wAdTT7xB+F5/it3ooq/lzVfxP8UpHSDREeRb+MosnUTkgtHkT/8CJPNRpEUdJ8EqiB8LLzvZhlN+qD4D/xCTMuaSbpBIgT0n7stcINGkWA7QrKICewJ9NAUFFG2ZuL+6MOhQv7L32YnETIda3ct0wsSAULx67fLCvsYGPGJjzG9bBRpd79J9vkEBkyF3/uQjCYHofjXX+BnpEA2SSdIVBbBsNP+z1iQc5/6/eAm02QR7jvRfYum0v0pvwj91/4F18TQBp4AJNfa1WbnMbXr4RWfSwChtwcS5/h73gf+zrvAjeuAEZsfB8BAMLYtviLV4jhJvMfp1/HL34w2Jj8Ht3AxjHjsAW6b9Il2NDQ9IwkRqEzWOP7BWwNAguO5r37eANKO3tGmZxbu+Ad88hm4O3gFHL8Ot628fKh/RKF+0uLk/LFjrRlJ6E1AssTAOabKFyKI05bp4ns/BH4Vjhy4/aTwF5+Cwqf/hAEkc9cW08ge10oK0IsS+Vy86/tQ/PUP4ZOPhJlE4QffBHf54hPtTSr1Je1nCda5/dMtGWIpImsRFwyLHycZpA8/o6Hwzdug8Ns3G0ASZHgmipI+4R94EI5f+ztY5efwg6ban/wwFG79XXAXT2xpM1zxiZWtGUnKmuWff4H/7d+PLmVWATy8HNdBduG5V8J5N7MLCnf+M7sulTdL2e32Mw8UEL7TNpXiez8A/qGHpNWj0Gz7YoAl83FkWQTQgb8xubHn8ExFciV5cEfhF1oOksoNwJ2949CH1sdvhcItH+QAoQaQyqTKy1mVP3AKVfwursR/7u/wZboFW3+spRRwx8ZObT1IJpyHvnt/AUfQNwLgW8EtWgBuKe7sJSs1kk2UOCKntJQi9rB0UWBAXwiech75GfjHUGbdtQedrRxEseX/APY837R6O//yy60HyamnVl8xp9GDhHkDSNOYnrmCCSgqkFfqF3SdfB80KbVPcNeG05EabsBoEosjK7YN/aZ1KuBKvKr0VqiUz84ZBapRgEDT5NS+kaTJDbPijQJJUSA9K+5JtcjKMQokTAEDScIEteLio4CBJD6eWosSpoCBJGGCWnHxUcBAEh9PrUUJU8BAkjBBrbj4KGAgiY+n1qKEKWAgSZigVlx8FPh/1579P1CWJmMAAAAASUVORK5CYII=;imageBackground=#ffffff;" vertex="1" parent="1">
          <mxGeometry x="260" y="98.5" width="110.93" height="159.5" as="geometry" />
        </mxCell>
        <mxCell id="ncX0ooX-KExpTdnl4g6O-1" value="" style="shape=image;verticalLabelPosition=bottom;labelBackgroundColor=#ffffff;verticalAlign=top;aspect=fixed;imageAspect=0;image=data:image/png,iVBORw0KGgoAAAANSUhEUgAAAMkAAAEhCAYAAADVpoReAAAEDmlDQ1BrQ0dDb2xvclNwYWNlR2VuZXJpY1JHQgAAOI2NVV1oHFUUPpu5syskzoPUpqaSDv41lLRsUtGE2uj+ZbNt3CyTbLRBkMns3Z1pJjPj/KRpKT4UQRDBqOCT4P9bwSchaqvtiy2itFCiBIMo+ND6R6HSFwnruTOzu5O4a73L3PnmnO9+595z7t4LkLgsW5beJQIsGq4t5dPis8fmxMQ6dMF90A190C0rjpUqlSYBG+PCv9rt7yDG3tf2t/f/Z+uuUEcBiN2F2Kw4yiLiZQD+FcWyXYAEQfvICddi+AnEO2ycIOISw7UAVxieD/Cyz5mRMohfRSwoqoz+xNuIB+cj9loEB3Pw2448NaitKSLLRck2q5pOI9O9g/t/tkXda8Tbg0+PszB9FN8DuPaXKnKW4YcQn1Xk3HSIry5ps8UQ/2W5aQnxIwBdu7yFcgrxPsRjVXu8HOh0qao30cArp9SZZxDfg3h1wTzKxu5E/LUxX5wKdX5SnAzmDx4A4OIqLbB69yMesE1pKojLjVdoNsfyiPi45hZmAn3uLWdpOtfQOaVmikEs7ovj8hFWpz7EV6mel0L9Xy23FMYlPYZenAx0yDB1/PX6dledmQjikjkXCxqMJS9WtfFCyH9XtSekEF+2dH+P4tzITduTygGfv58a5VCTH5PtXD7EFZiNyUDBhHnsFTBgE0SQIA9pfFtgo6cKGuhooeilaKH41eDs38Ip+f4At1Rq/sjr6NEwQqb/I/DQqsLvaFUjvAx+eWirddAJZnAj1DFJL0mSg/gcIpPkMBkhoyCSJ8lTZIxk0TpKDjXHliJzZPO50dR5ASNSnzeLvIvod0HG/mdkmOC0z8VKnzcQ2M/Yz2vKldduXjp9bleLu0ZWn7vWc+l0JGcaai10yNrUnXLP/8Jf59ewX+c3Wgz+B34Df+vbVrc16zTMVgp9um9bxEfzPU5kPqUtVWxhs6OiWTVW+gIfywB9uXi7CGcGW/zk98k/kmvJ95IfJn/j3uQ+4c5zn3Kfcd+AyF3gLnJfcl9xH3OfR2rUee80a+6vo7EK5mmXUdyfQlrYLTwoZIU9wsPCZEtP6BWGhAlhL3p2N6sTjRdduwbHsG9kq32sgBepc+xurLPW4T9URpYGJ3ym4+8zA05u44QjST8ZIoVtu3qE7fWmdn5LPdqvgcZz8Ww8BWJ8X3w0PhQ/wnCDGd+LvlHs8dRy6bLLDuKMaZ20tZrqisPJ5ONiCq8yKhYM5cCgKOu66Lsc0aYOtZdo5QCwezI4wm9J/v0X23mlZXOfBjj8Jzv3WrY5D+CsA9D7aMs2gGfjve8ArD6mePZSeCfEYt8CONWDw8FXTxrPqx/r9Vt4biXeANh8vV7/+/16ffMD1N8AuKD/A/8leAvFY9bLAAAAXGVYSWZNTQAqAAAACAAEAQYAAwAAAAEAAgAAARIAAwAAAAEAAQAAASgAAwAAAAEAAgAAh2kABAAAAAEAAAA+AAAAAAACoAIABAAAAAEAAADJoAMABAAAAAEAAAEhAAAAACALL3QAAAK2aVRYdFhNTDpjb20uYWRvYmUueG1wAAAAAAA8eDp4bXBtZXRhIHhtbG5zOng9ImFkb2JlOm5zOm1ldGEvIiB4OnhtcHRrPSJYTVAgQ29yZSA2LjAuMCI+CiAgIDxyZGY6UkRGIHhtbG5zOnJkZj0iaHR0cDovL3d3dy53My5vcmcvMTk5OS8wMi8yMi1yZGYtc3ludGF4LW5zIyI+CiAgICAgIDxyZGY6RGVzY3JpcHRpb24gcmRmOmFib3V0PSIiCiAgICAgICAgICAgIHhtbG5zOnRpZmY9Imh0dHA6Ly9ucy5hZG9iZS5jb20vdGlmZi8xLjAvIgogICAgICAgICAgICB4bWxuczpleGlmPSJodHRwOi8vbnMuYWRvYmUuY29tL2V4aWYvMS4wLyI+CiAgICAgICAgIDx0aWZmOkNvbXByZXNzaW9uPjE8L3RpZmY6Q29tcHJlc3Npb24+CiAgICAgICAgIDx0aWZmOlJlc29sdXRpb25Vbml0PjI8L3RpZmY6UmVzb2x1dGlvblVuaXQ+CiAgICAgICAgIDx0aWZmOk9yaWVudGF0aW9uPjE8L3RpZmY6T3JpZW50YXRpb24+CiAgICAgICAgIDx0aWZmOlBob3RvbWV0cmljSW50ZXJwcmV0YXRpb24+MjwvdGlmZjpQaG90b21ldHJpY0ludGVycHJldGF0aW9uPgogICAgICAgICA8ZXhpZjpQaXhlbFhEaW1lbnNpb24+MjAxPC9leGlmOlBpeGVsWERpbWVuc2lvbj4KICAgICAgICAgPGV4aWY6UGl4ZWxZRGltZW5zaW9uPjI4OTwvZXhpZjpQaXhlbFlEaW1lbnNpb24+CiAgICAgIDwvcmRmOkRlc2NyaXB0aW9uPgogICA8L3JkZjpSREY+CjwveDp4bXBtZXRhPgrhNnm0AAAqwklEQVR4Ae1dDbRcVXXeZxJphAABAgRIwnv5/3skL4T8EH6KokKhaNW2tlJr1VKqdnUt66quVqv9cdVWrdRWXQuWrVprC/61FKhS+TNIAgnkPy/k9+UHEuCVBBIgJcmc7n323vMmLzNv5s27M3PvufusNXNn7j333HP2Pt89Z+9z9t7OYwJLRgGjABw/fhxGjBgBt9xyC9xxxx0wevRoePTRR8EZSKx3GAWYAgqSvr4+WLp0KWzZsgVuvPFGKBiBjAJGAaYAjSIElLFjx8Jtt90Gs2bNgn379tlIYh3EKDCQAgQUSgSao0ePGkgGEig1/4VRoT7ILEutp4BOv0a2/tH2xEEpQOAoFgHe8Ib+bPg2gwLOjA0s/TRp0S8CignuLSJ2zcfoyKFA0P9048Bz+r9moZYhCQoYSJKg4nDLUEBg5/ebN0Px63cAPLYK4KVDAKNPBeieA4VbPgBu0UJAyZKfZkAZLtXrvt9AUjepmpSxrNMf/+xfgf/zL+ODXqnwsFHgPvx+GPGlzwOMGsVgMaBUoFPypwwkydO0/hLLAfKe94G/865wr+teAO4jHwSYMAHg4EHwd3wT/E8fxGtFcEuWwoif/AfA6acbUOqn9LByGkiGRb5h3kwCOQrox0sAOQXcZ/4YRnz2U/3TKnoEjhjFb30Hiu//GP55mYHy4L39wr2NKMNkxOC322Li4PRp3lUFyKf/XEaQkVD4x79lgNA10nDpB/8XfvtmKPzku1ifM8Av/zkc/y0caQwczeNPWckGkjJitOwnTbNwBCne/1Pwf/Wl8Fj3mU9C4SO3Ahw5wupeUgGXfwgob70WCt/9R8w/Evz3f4AC/u0MFAKVpaZRwKZbTSNtlYIJIDQCvPoqHJ+zBPzOp8H9yjtgxA//HXB5d/D1EAIQCu3HP/bH4L/8FXzA2TDi6UfATZtq8kkVcidx2kaSJKg4lDJoCoXp+GdQk4UAgTdeACNup9EBU60FQxpZMI34m8+Bm9mFv16E4ic/Hc7ZV/MoYCBpHm1PLlmmWX7LVvBfxKkSpsIXPgG4o45HkVoyBl2n0QbB4r7wF3g3Trt+dDcU7/1vHp1UWxZKtq+kKGAgSYqSQyin+Gd/ibkPA6l6gxwi4KmrCBpNECiFG64H9+vvxFuK4D/3xf5bDSj9tEjol4EkIULWLIY6L44EfuUq1Gb9CLMXwH3+s3ybTMFqlqEZaFqGqfDZP8Fv1nYV7/o+jybhin0lSQEDSZLUHKwsAULxb2lFHbdfX3N10FaFbSYiawx2+wnXZNrlZszAVfjfDJf8bV8/IYv9SY4Cpt1KjpbVS9JRZOMm1GhdhfkOw4if3gfuzW9qXCulZe7sheOT5mGZR6Bwz4/CNEzlluoVsitDoYCNJEOhVqN5dRS5/RtYAsoiCxYxQKi8WsJ6tWfSfQgU19mBsslNIZe//Z85t0zH+I99D5cCBpLhUrCe+2k6degQ+K/cGXK7j/4u30WaqgRS4aO/h6WcAv7u/wbSnAXg0UhjKREKGEgSIeMghQgQiv/0LczUB27MeCjc/Bt8w1BlkYGP0dHkiqXgFs7Hq0eh+Pdf5VxDVQYMLNv+lyhgICmRogk/6G0uUx//XdQ+UfrD9/ObPqFRJOzvwmLdH30Uv5Gdd90HcOAgb2mx0QRpMvxkIBk+DQcvAd/2Qe37xArMNxoK73k3509KblB18NveAm7cRPB9u6F4Hy4uUrLRhOkwzG8DyTAJOOjtKrDfwQK1u3YxkNo2aJ8aFdgHPpDKoVHpzDMB3nlduOq/8e2Buez/MChgIBkG8Qa9laY6KrB/B6dAmNz738u3JDWKcGmlKV3h1g+FM/6hlSzA0/NtyqVUavhoIGmYdDVu1FHkHpz6vLYPM58LhZturHFTg5dlVHJdc4J6mdTMtKcrJJtyNUjU/tsMJP20SPaXCuz/eU8o133gBja5palRUlOt8hqLIsC9W9ZMvi8gGa4GrfwZOf1tIGkG42mKQ0BALZO/k6ZauE/rV2kzYhOTgNLdeD0+5DTwq3DKtWYtP9CmXMMivIFkWOSrcrNOte6mUQRX2Mfi2sh1b2X5oFlvdhHg3exZaANP21SKUPz2v3IFbcpVhVH1nTaQ1EenhnL579FuX0y/9kt8bFFndR+8mZ/344f4aAI806HBbwNJg4SreptotfzeZ8Df+0TIVvi1d3H2pLVaAyuhU64rr8ArOOXq2dw/5RqY1/7XTQEDSd2kqjOjjBZ+7Tq84QVw46eAu+zSOm9OIBuClGze3UIy7z0K/gEZTVo0iiXQgtQVYSBJmiWq1fqXf+OSr7oM4FR0VdosrVZ5/UkuUTBcf2244r8hckmzR7HyekT220CSNENFvevvXhZKdu96Oz+hVZ1UnlMI2rQCTrl2gt+123YGD4PPBpJhEO+kW2WtIjhmCAuIY1irdVLGJp4QkAYt11TcAkMLi/fwin9plGni42Ms2kDSBK76h2UUuQmtEGmqpesmTXhWxSIFrPAuXMDE5B94OBx1RzL/se96KWAgqZdStfKJVitke+Bn4eDe+ia+S+WEWmUkfN0tXhhK9D96FMM4vGRTrgbpayBpkHDVbguq39W00n0auF8ke3ZMrZJH+Gml5xXehtvn0ciLjL38GtK2WWqEAgaSRqhW6R5V/f4XensnbyhTLwaSC1o+1aK6yep7iGOyeE6obfFf/z0cTS5hMgzl20AyFGrVkdff+xPOdf01fGzTVEtHL/du0a6teIrr0+pRrQ6apT2LgSQJDqk8QvP+JzeGEgvv4N242lmTeEwjZbiw+v4G8Ou3gEeXRuYkYuhUNJAMnWYn36FTLZz3+/29eP1cgBnTTs7XhjNu8iQgOxMKMVfaFdyu0a0N7U/ikQaSJKgoZfgVvFfLXXcpuAsuaM0qe7X6k1xCoRrouHh+yOXvu59z25SrGtUqnjeQVCTLEE9Kp/P3SidctGCIBTQpuy4sXvcWfsB9vH7TpKdFW6yBZLis1YVCcj63jFS/BSjcwA4Z2i2P6PMLbyYlAu4KPvg8yiYbTC4ZIs8NJEMk2EnZZX5ffPBhvIT+rjD6lJvfzdnkTc5/2vBNzycQoycV1z0TK/A6eAxBF5LJJXUzxEBSN6mqZKROiMk/ujwc3U2Xp+tNrWB4G6uk/YqVoZ72VT8FDCT10+rknKr6pSuPPxmuu+t4i3raFu3cFQheSg8jSEhVbdaKTI86vg0kdRBp0Cw4pfHP4Vx/GYEE47DPJ/tyTGnRIEk93JzZWKmxwcMjbZ2xVD8FDCT106p6zk09eA0dPoy7EP1etdAKsXqN+q+QXIK7gt3FE1Eu6Qjn/Y9FC6dTsf7c9qsCBQwkFYhS9ykV2sN+LbxrzhSWR1phhVh3JcsyXrko/PEPmSq4jCo1fxpIapKojgzLHg+ZSvJIHbe0NItOuTAYaUhrMTQ2JZNLmA41vg0kNQhU9bIK7X24DX3j7pDNhfUI/JkWeWRA5V0XySWjwe/dHTzdD7hsf6tQwEBShTA1T+tU66k17Ov3jRfgvP/imre1M4M77zyUmQgouF6ybj1XxeSSmiwxkNQkUY0MwcAKPcZfPRfgrDHtsR+pUcWSfQkJ8Qt5odM/xlPEtI56tZrUyusGkkapLVMqv+wxLmGBrLKn/M3sLmfhHe5Hk15KBBxLg1LAQDIoeQa5KJ1LvTS6pUs4c0rlER0x3OVUz1Eol+wN6zuh0rJrYJDW5vqSgaQR9utWFDJiggP4wTBvS+QN3Uh5rbiHQI31dp0duJ4zDp94BHzYb4Y/Uz76YQ3bmgwkjZBfOpX/GU1ZjqFR01QOx0bgycL05WrxorJC5BIbSQbtBQaSQckz+EXe1IgkvEb2RQ2evf1XBdzuSqnvatw2T8nWS5gOVb4NJFUIU/U0vXWpU9Gq+vrNmK0IbrFMtTIybXGzZobm+WWbWC7JwuhXlSHNv2AgaZDG/tl9wbkCCcFuOk63KKVVaOfaleoXFhVxXYe83sPu3XrVjlUoYCCpQpiap3t3YZZXMLTCeHBzL6mZPRUZaMSgEXDsWJSjeOHTP7EqFVVLcyUMJEPlTkloX8Z3pn1TY7X2LebdyiU/wRmZKlZrTjPPG0gapK7/n0f4zrQ4fai3HTIldFdfyXesFOE97VPFetvXhHwGkqEQVYV2OmLcD0qFa67mEjLWydyl4mZoLxqMbUYFhKyjcGPsu5wCBpJyatT5m0K9+b7nMfcodEI3vc670pXNXYgbMjup7i+Df3orV86mXBWZZCCpSJYqJ1UewYCdtGLtuudg+OlzqmRO6WkdMUiNfSk704bNW1Ja2XRUy0DSAB/8GtlmjiA5YYdtA2W15RYdMWbLeokEHUq9CrstxMIpdZuem83HqtyhnlFmUbi17CbXjdv7MflH1qZzi39KSGsgGQojZJ1BPTWWnD4oeIZSVjvzSn0LYefyGWg09gL450nGwmT7uJgOZd8GkjJiDPpTOo/fTPbhB/FzBrhFGH46i0nlElpUHH8etuAYaJxH2xF8MkMNJCfTpPIZFdrDzl/AFetOVG6hdovAQ50uq+kyFt79Q7Luk9V2NLHeBpJ6iasjyVoR2iWcQb23py6fgN695U1ctW07+Ji1qWMLCGsgqYfIBBBSmVLavC0c3NVXhGPWpyfsQQWbQoujFqGXeTrg20AygCBV/+KUit2Z0hoJTrc6cbqV5aQjxoQJ2Ap0f4oRuvzuPVluUdPqbiAZCmn37cPczwHQNvPJk/hO7WxDKScteXGEDO5PuwgoqAreyqNk1kfHpMlrIKmHoiq0B5t2Etox/PT5qBVKqzvTetpEygZdVJzF9jB+OYezq+f2POUxkAyB2/5B0QDNFCOrIdyb6qwaBPXhn6e6mu2qnIFkKJRfiSvTmNxlbIsxlFtTmVemiqWdzNue4WpmeQrZBEIbSGoRVTVbr76K5rrPhtzuF6+KqjO5S7qwPeiL6+ABi/VeoT8YSCoQpdIpjzHa2cfWabhKfVGlLNk9d8bpqK0jc16M9b5OjLBUXsluqxKruYGkFilVaA+an9c5QCcG6owi6fYUOi4RI6ynbdv8QN4aSAZSpMp/v4G8NWJawDtnM63Z4pbwt7wE3GzZ0bxqNZ83uaREJQNJiRRVfmhnCdMtFNonT6qSMeOn1cKSAvyoalu24mS8ZcOuvoFkMBJSJ6GpCHWaVbzSDnNJyI0oyUvAdc/DRlGAn17enhJRE4fbFANJHRQMjugO7sWcuD0+RLHFnzrC1HF/qrOIXOI6O8CNwfgquG2+uOqpVFe51ZUzkNRBcb9hY8jlxp3Nmi0dYeq4NxNZVJPVLYukutNZz2eiEc2rpIFkMNqqZutRCdRzKYVSiziJDzH/+EpupMkkgQ4GksH6vHaS9azZcotkpT3SN2xpJ0EvTS0xmbf5QAYDSSBDhS8CCFkeUtqxm4+XLeBjbN8qvE+dElrmV+8CTzueSV6xZN5SavUBvwvDOffswWwjwV10IWePRWgf2HiMzhvMAIK3eWozpkhHTW5cfd82klSjk3aOZ2i/1kEMoYbe4yey3UW1WzJ9HkdO2v7v5k0KzfDbtme6OUlW3kBSg5q+p4dzdOJ+LdqOQtOw2KYh1B59KXRODO21ENb9HcNA0k+LE3/JlMo/xdvjYY5s29DOdGLuaP65haKcWC0OL6JpWeMNMZDUot1yDnLjYltpH9hulbNm8svALxdT3oH5cvjfQFKD6X41C7C8bQMza2eqcV9WLxeCBu8UrP5h8Dt7eWpJU8wcJwNJJeaL3OHX0FTrJfxgXMSuyBcSVc4i25JxpMVD25LVa5g6kU8xuZHVvw0klWgjncLvoEA9GGKBDJJOP51zameqdF/Wz6lSYqHEgAwuXbPeqOHX30AyGA3FOwrM4xAF0TuT1hGjm0Hit5hcQt3DQFIJJKrZ2iwRoC6RYDfaiSrdE9E519nBrdkoVoo5355iIOHu0P+tUw46rhdvjVMn91+P+Ze8HFxwMXQK+FVogEWuT3OeDCTVOsBh1O6sp5HkFHBTBCSRa7aUFGx9iXFLcKeBf/GAns7t0UBShfV+L/mgOox7mc4BN1cE2Sp5ozlNSgmywqS4JVNxHxcm/9jyaJrXaEMMJFUox+pftGkffxbvBla77yr5ozs9Z1poUik+ZE7ksUp8NJAMpIqqf58UryHzRWgfmC/y/25BN7dQvcRE3t7BmmcgqUYdibCrwTerZYvuvMpdOsXcVeb6lJQZOUwGknKmUydQdedeDLGAyS0UQyvtPOX5I/7tJnP8Fd+zD8imJrqdz0PgnYGkArFIaPdb9+OVkQBqaFUhX8yn3Pnj0HvKeGxiH8Ae3r9W2k4fc8MrtM1AUk4UFU5Dp3gR3NgLOQ5JeZ48/KYR9Sx0LzST/AOjhotGkhwnA0kF5vs9Mg+fOqHf0KpCvihPVTLAyrnwbiAp7+kid/iVbEMCYqVXcvtZnjcHv90M8cMlSozYzQSqsdRAUokyqtnSPVsx7/yt1H5VUoS4JZhhjbh4rZQ3B+cMJBWY7FcM8PurnaZC3phPcXCfkRiZF4X3Awdza4BlINFeTsIqjhgUhhpeexnPvgG3o0TmHFvbWusoI6fr7MCctIcLo3xtZFev+Cd3yUAygOVsjfcKnh0DjvxQUcrbdIvaLAuHrnsS/ikiSMRrjGoAKU9OkoFEGa3M374jnHFXzsrt9EJJEo7dvC3HawQsAc8JeSL/YyAZwGC/SeSRLrFGHHA9N3/lpeFmkfcU7Cbbe7nptCMhZ8lAogxX4XxHbzjj5uBIQklHGP6Xv+9gS1ME6EFT3iNHcjm6Gkio24vQDhiGuqTujNmlaT1Ql5eGu5g8OmL46q3oRPslUmjkLxlIynjuD6E14n7as4VhqGWDX14X0JQsZKXoxozFv6jMIE/zOUwGknKmh06ALoTGnIXOsdknbvnlXP0mjR4ZmpErpQnnhqZ7jYCVK0KYtxRmt8gd/smn+D91ilNP7Y9Cm7NOcVJzZ/H2FP+UGKLlTE6zkaSsR5TWArrYH27ZpVz/LBmeScSvvBHDQFLO8YF7tsqv5fG3avxU0yeGaHmT0wwkpNnSztBLAXvQGlHtu/V8HgFS1manYeK2vtAfJi5Hi4oGEuoMtGcLhXa/80XuGpMmlXUR++nOJcGdPuiDa3f+rBQNJCqE7tyFneB/8XM+arfQKs9SPwXQStEtoBfHMfCy2Np/Mf5fBhLhsd9LYZmL2Bk62HQ1ft7XbqGqgSnnNBldt+XPibaBRLqKX7+Rf2lnyJszOqHDSQeVPSaSUwi0d98oe9tyJK8ZSJTZm8WDel6cY5+EhionxEzAzZjOGdbJlvkq2WM8bSBRrq5l5rvODj1jR6KAvER4NzBaKfag7KZ73XJCIQOJzLv9VpJJRvaHfdMRJicdoWozdSTpIruSUfhBK0WNgKVTsao3x3Eh3yARJvvt25Gbr+EHYyPOEjsS6RxxsHmYrSA6jULajB+HBaGGaxvRC5NqBvlftN/5Bonu2Vq3ARl8FANq4m5X7AyWqlBgLsslfvXaKhniPJ1vkChP1TRVA2rmZBqhza951BGjSwzRemlNCVNO6JRvkAiT/XaKsotplmhwtFPwWfsWCpQ0XDt28xl1Lh45hfILEgKI2msL09nPVOQcH0bznFpr9uBLhWIp5kRuyy9IqLMQk4nZxHRM7sILwtG+BlBANX0d5ED7DPB9+8EfRLrlJOUbJMhkYrbvI7NUdMJ2AWlvMGmn4H/2LRRw55+Hyo2z8d/rAM/wjuk8ECf3IGFmo2ZrPHaAzo488HzobaQRl7bpkLXmRH6R+J78rLznFySq/l1P6l9M485hGcX2bDE9qn1PkQhYQW2OmXKg5MgvSKQT+E3yRtSNjdU6h50PFHDz5zIlVsvLJQd0yT1IYNPTJzI/B0xvqIkqp82WtZKdEuhIzzdUaDZuyi9IlLnbxdJOma/ns8G/ltfSTZf47ntfBIotGTSEkS8q5hMkxFQURkMA0Z1kjYjq3zmzW97hsvhAd/ZZWG3cvgOHUMMlo0kWGzKEOucTJEqgYK+NwWmQ6e700XrWjoNR4Mwzcaf0BMxxtN+UN3LhPZ8gUc1WiCp7DFx3BwcQHaxz5P0aqYF1WjV9ElNDnUJETpt8gkSZqkxWzZZMw/SyHQdQgNTjlGaIXNKTD1PefIJEhHOvTO6k7RaYtBPwP/seSAEaTTC5DvGTvFFMnuV8uBjhVz5BoowUJrspMn2InNna7IaP8nJxwS9ZAfyq3v4pWMOFpv/GfIJE5teBycgjFzbu4Q9T/9bXY8N0C7eooJ8y38fawZK8Ul8JmcqVP5CI8Omffx4ZRR4bTwOYLnYkmWJdGyorLxd3Ae2WRrqhKS9siH/lPX8g0b4VtqOQIDoaNzdelDsPIEqGRo9uoezhUldMEauB8wcSVf8Kc92SKY32k3zfN4fDU/gtW6OnQ/5AIiwtRdmdyQFqoud0Ug2Ul4ybJnTrlW09SZWfwnJyCxLYK2EWQghm5EzE04Wm9DuNWbITQUJyXsT27vkCSTkzt7LJLqj7zqb0pAgLVTVwsOJENfD6Z/s1XBE2l5qUL5AIE0lt6Xv2h+Y7M9kVqgzxEOiGhmrwHEDQFA7x/gxlzyVI4ACpfl/ADwamuQg1W5aGRgEckUkN7GaKKe8+euFginTKmkuQ+N3k9xcXEWeiXTs6N7A0BArQWomC4aLz+Ubd3jOEYrKUNV8gUeaW7NrJLgLTkSO58SHFDU7oexqrz2N3e5ovkEjfKAXsUbedtmerIdRwOAa8tSfutZJcggR0Y6Pq+hvqIjm+STVc6oF/h/jginTvW75AokyUeORO7CJsY2NjgHdds8ONvu8gRi7ujdbePT8goTUSnFZ5tEb0+8lkF5s+hwLTWGqYAuSsDqMVAxyOOnR1fkCiQvsOWkR8GT/nml07UqGhpDIcgiREK8ZCfMRRefMDEukNPpjsSijq8CZsqJvYTTQyUwqmz0Xwe+L1nJI/kNDcmdJsttMOJrv6ZuQr9l0PBdTUWaMVb93Od6ncV08ZGcmTH5Ao89T+Qa0RM8Ko1FVTXiyus4OrpmrgCF84+QGJMm87hzIrMZdZbN9DpYC8dNxkMr7C0NWre3lRlsrRqRj9jiDlAyTKNFxZ96toWoChqANz8aeOMBEwsy1NmDwJH0taLnR7+hIpROJL+QCJ8I2ZSJsbkakdHfFxs5UtopEZXz5ho+MYDIAEKLyvXdfKGrTsWbkCCTstQM0WMtXs2hPsY9PGc2G60VHV7Qk+op1F5QMkwjSvQvtMcUbXTsrH9OySvfu2mFpVaks+QCLN9WvX8y+zay91gGH9kJdPaaPjFgPJsOiZiptlwavE1MimBe2isZt3CT/6GbRSJCVJZPbu8Y8kyjRi4y5ZFdaAPe3qVbE8VzWD55HhGtq7o0k0O/2LpYHcjvhBIvzy+/YhEykUdQHcRRdK63PTfKFCkw5jydadQlcfAFC3p016VDuKzU8vCcwj9S8yMzC1HeSO85luLAZBmkmuT4+B1/juEU1l4weJMit49ED1LzLThelBnB22pa2itRLaw0UyyCQNx7CppVVoxcPiB4lQ0W8Q5pHzAmWublVpBaVjf8bFE0IL/dNiyqvySgTtjh8kwiy/Tryfa8CeCJiXpia4SR1cnQ2b01StROoSP0iUTGGXKgrts2fqGTsmQQEdMVRjuHVPEqWmqoz8gCQwr4ixSMSORJmbKnZktzJubhdWHtXAZO/+HMZ+kb1d2W1Rf83jBgmtkSCzgvoXmRfUv93z+ltvvxKjgDuL4ruPwc+rAFvjcjEUN0i0C2zfwcxD9a87k3asWkqMAqr8GDUK47vTnjhUA4fQ3/hTNYuJPaw9BcUNEmESMw3jtXehBgaZGZIytz10j+upNGJTmiUxSxQkep6vZvY7bpAIW7zaX0+fxGciYV5qep2OGBrfXTc6RvIiihskKpz3sskuqGZLmZqaXhZHRdyEi7ghW2h6iymSjY5xg0TfZMK0EhOZhfadMAVK8d3XIEheRQE+khQvSHRKhczyxDRKE3hVmP/Yd2IU0BE7eKAZDfDac+APoVfHSFK8IFEG0RsNmQaAJrtTJdKuMlXz2DERCrjODnBjSQ1cBAgaxUSKbXsh0YPEb346MC3YtXd2sFGQTsPaTv5IKkD0VGd1HbQbGN2eqlOICOS/eEGi6l812Z0iQmUETEs1tILbUwSJbihNdWXrq1y8IJH2+y2y+qtuTeuji+VqkAJu/ly+U9XAKhs2WF4abosXJMqc9bxFXmNppIHoUdZB5Tzd6Ej27pQiUAPHCRICiK6s7+9jZinzlJl81r4TpoDrmBhKDPbuaDIdNjom/IxWFxcnSISKbNfO4ZOVea0mcO6edxbZulPAVrR319DVGSdC1CCBveQdBeO1vxFNdtEO21LzKeDQf0DYI0cbHXWnQ8aVJXGCRDVbz5J3FIzXPgM1WwaS5iJE1cB0nCIeMnXPXHOf3PTS4wSJkm0jC+3QIb5qSZdvayRKneYdVS5Rk+mMy4FxgkSY4jeKvbUwrXm9wkoup0DJRHp9HPbucYJEOSZMKjFNz9uxORSQl5MTE2m/fm9zntPiUuMEiUyp/Hp2SuCm2J6tVvYr10Whv8m47VAU8d3jA4ksIvoQQJR2oqJZ6Xyza28JSFTeO/NM1Caeh4/EyGJPb2nJo5v5kPhAopqtTT2BSYFZp5/ONFQmNpOieS9bdzp0TWZKqPIkw2rg+ECinTTs/sU/yixlnl63Y3MpMHN6KN/v6OXnZJj+0YLE72Z5BLpmMZMy/CbjBmTkW+hcigGzS/hAe7gymuIDierkN5EdCS4kTqIQypZaToHxZJqA3WsTRr/CqMdZdlYXF0hoSCe5gxYNt8sbbMrklvePXD9Q1cAX00bHU1C79UzmQ1fHBRLtnS+9hMwhHT1qtixgj1KlpUfX2YF75sirI2oYkR9ZTlGCxPfR9vhXMBQ1BpeZJg7TssylLNVdR3JSA48nkKCV4pOrs9SCk+oaJ0h0z9AFyKRTT+Xpl6l/T2J+00/MYefkfp1EPc6o8iQukAgT/MqnmP9TTWhvOhAGe4A6AxQlymBZ03wtLpAopcW+2i26VM/YsZUUUOG9azY/devOVj498WfFCZKdotmawQtaoGrhxMlnBQ5GAXcJ7eFCmaQXZcQDBzNr7x4PSEj9iwtWFEDGbxOTXQ3YMxgn7VrzKBBMedFZ3Wv/izzB9ZKMpnhAogx4Bk12kSkUitqdT5vsLLWLAmzKS3Lh6+D3yLb5DArv8YBEhfZgV/06B5RBNaSlNlBA1cB0jMCUNx6QaF9Qu2qKRUL7hcxkVynTnuN0XqcqRT/OoHwYD0iE+H6VqH+Dh/P29At7aj8F3BR8WVFavYGPGfyOByRK/CeZGe6y+XrGju2ggKqBQyDXkeB7MJBSRkf1OECiGxspFgluqAMY2b8dJYPDezv6dOLPlB0O/aa8hzFOzFp+TMZsS+IAiXDYr1mHv17FD8YimSeOm207ilCnDQdRy7uZpOEqQsl5ecY0XHGARDVbISZGUUIlI18y9sZqQzduzSO7ZVHxiVX8vIzxJQ6QCNE5YA82abHJI63p/TWeIi8vt1C2B+2hqTCmjI3ucYBETUPDRjocSbplqpWxYZ17UITfuvNhJSpVDh3K3PaU7IOERhF6M5Fhzxp2X+OmiZ+tCPtbppqkGq5gQn0G+L27wb94IFNNoMpmHyRCciK+76OtD+j635zRCVXScXCTJ4HrpFiKrwPsyN6O4HhAEvxs4VSr81xwZF+dMeEwHd054VrQCK9rI+PHhcK9Cu8ZmgpnHyRKbI32Ol0Mreh8xgTEhLtouooT2x6/WtZK0lW7QWuTfZBI8/xjT/CveV2DNtgutpgCKpfMEf9n68izZrZS9kGiK+pbeK7rFi9kDuj5bPEj2tq6q64IbaNYikCOOkgjmZEpcbZBIpotco7ttz4bmFBaaY+2u2WzYe5sdMohsRR5PQv/6lQ55U3KNkiUyMGGBM1DKTZiYEbKqZ7H6pGLoSVkTo2xFDPmaT7bIJHOpnuC3FJ0PEAe5HXtJI+dMW1tVg0X1WvOjFA7vzFbckm2QSJyR8n5mS4i6giTtg6T8/o4McCCVaLhyojcmG2QaKdbuzH8Uu8cetqOKaGAgMEtoD1cBfDLkF8ZGu2zDRIZyv0TZGiFNiTzLuFekZE3VEq6cMuqwbEr0aMmHIRSaIwMaLiyCxIhLhvyHEbCj8awb93McFtEbFnHr+tBxA/i11j0zRxW3lF4/9mjfGsGpsbZBYkQV23aXTduasyQ7r2uzhVjpqVsxlDanpKBNmYXJDqSqOOHJQsyQO4cV1Feau5qXlSEHg6ylAXvmtkECQFkFIVAxiReONxCAUkGhm+ueD6/nfgH9is288q7TsVSTI5sgkQI6nehfcJqsiFBoX0W6+Cz8GZKcX9oXtVUmTIV/XDhoi+8tg/tS8RSsXlPTaTkTIOEbRNeRmGwA+3a2Y46EapYIclTQDSR5HrWzZsUyvc/X578c5pQYjZBIlOq4v0/ZZLMxe0ONP1S24UmEMqKTJACi9nm3d/zYy405VPkbIJE+fWTh8Ivd82VesaOaaaALiq++Rqu5Qpc3yL5MuVayeyBRIgaQiys7g3Edr98AxNd5738z75TSoHC5UuwZqeBP/gc+OUrUlrL/mplDyQyNPsHH8ZW9IEbOxFlEooZbin1FFBN1lljwF1Ddj9HwT++kqud4ilX9kAiPcE/tYZ/3XC1BQ8VmmTioGC4ammorn9oGVc7xbOA7IFEfWzd+z+BuG7RZZnoG1bJEylQuPJyPIGbHe9FDRf6cA7+CGSB+MSc7f+XLZAIEUm/7nvIJuE0HLavYiqm+E3UfjanqAYqvF9FypZz8PNi6uWSbIFE5ZH//C8k7jF0HzQe3AxcRCTw0HzXUvopoHIJzgjcdawKLv7wbq63TsVS1opsgUSI55c9hr+w6tfKPqCUEdWqU4MCAgZ30y9xxlUiX9Iok8IpV3ZAQsQjeYTmr0+QZRs6onv7jUzklL6BanSV/F7WKdcVJJdgxGS0Bwom2CmdDWQHJNKl/MZNGKiHdpCibcJcM7LKMtLcjOngaC8XYICfDWxdmkYPKtkBicojP74/9At37TxeH7GtKNnDCY0YxDeaGVzJftL8XT/kdqRQAZMdkEhX8N8joR3AXStbG+S8HTJGAZ1yvfPtoeL+zkdSq4DJBkhEHvHrce66nlS/BXC/chP3ihS+eTLWXdta3ULw7DgG6/AcFIPWEn/SKJOilA2QyFSreNcPkHSvo5OzJf2BQ1Mq7KWIx+msiqqC0U+a+8A7Qh3TOuVKP0hUq3XkCMA3v4fERK3We3+VGZ+yN046e2OKa6Wq4NKU6z7w+/albvU9/SDRUeRb30FLtm3I8XOh8JvvYc7bVCvFCKijaiS440uwcMP1qOUir/OHofj5L/KNwvc6Sml6lnSDREcRHDH8l74WiOE+/lsAuIvUDKya3jda8wAdTT7xB+F5/it3ooq/lzVfxP8UpHSDREeRb+MosnUTkgtHkT/8CJPNRpEUdJ8EqiB8LLzvZhlN+qD4D/xCTMuaSbpBIgT0n7stcINGkWA7QrKICewJ9NAUFFG2ZuL+6MOhQv7L32YnETIda3ct0wsSAULx67fLCvsYGPGJjzG9bBRpd79J9vkEBkyF3/uQjCYHofjXX+BnpEA2SSdIVBbBsNP+z1iQc5/6/eAm02QR7jvRfYum0v0pvwj91/4F18TQBp4AJNfa1WbnMbXr4RWfSwChtwcS5/h73gf+zrvAjeuAEZsfB8BAMLYtviLV4jhJvMfp1/HL34w2Jj8Ht3AxjHjsAW6b9Il2NDQ9IwkRqEzWOP7BWwNAguO5r37eANKO3tGmZxbu+Ad88hm4O3gFHL8Ot628fKh/RKF+0uLk/LFjrRlJ6E1AssTAOabKFyKI05bp4ns/BH4Vjhy4/aTwF5+Cwqf/hAEkc9cW08ge10oK0IsS+Vy86/tQ/PUP4ZOPhJlE4QffBHf54hPtTSr1Je1nCda5/dMtGWIpImsRFwyLHycZpA8/o6Hwzdug8Ns3G0ASZHgmipI+4R94EI5f+ztY5efwg6ban/wwFG79XXAXT2xpM1zxiZWtGUnKmuWff4H/7d+PLmVWATy8HNdBduG5V8J5N7MLCnf+M7sulTdL2e32Mw8UEL7TNpXiez8A/qGHpNWj0Gz7YoAl83FkWQTQgb8xubHn8ExFciV5cEfhF1oOksoNwJ2949CH1sdvhcItH+QAoQaQyqTKy1mVP3AKVfwursR/7u/wZboFW3+spRRwx8ZObT1IJpyHvnt/AUfQNwLgW8EtWgBuKe7sJSs1kk2UOCKntJQi9rB0UWBAXwiech75GfjHUGbdtQedrRxEseX/APY837R6O//yy60HyamnVl8xp9GDhHkDSNOYnrmCCSgqkFfqF3SdfB80KbVPcNeG05EabsBoEosjK7YN/aZ1KuBKvKr0VqiUz84ZBapRgEDT5NS+kaTJDbPijQJJUSA9K+5JtcjKMQokTAEDScIEteLio4CBJD6eWosSpoCBJGGCWnHxUcBAEh9PrUUJU8BAkjBBrbj4KGAgiY+n1qKEKWAgSZigVlx8FPh/1579P1CWJmMAAAAASUVORK5CYII=;imageBackground=#ffffff;" vertex="1" parent="1">
          <mxGeometry x="80" y="80" width="124.49" height="179" as="geometry" />
        </mxCell>
        <mxCell id="ncX0ooX-KExpTdnl4g6O-3" value="" style="endArrow=none;html=1;dashed=1;strokeWidth=2;" edge="1" parent="1">
          <mxGeometry width="50" height="50" relative="1" as="geometry">
            <mxPoint x="80" y="200" as="sourcePoint" />
            <mxPoint x="400" y="199" as="targetPoint" />
          </mxGeometry>
        </mxCell>
        <mxCell id="ncX0ooX-KExpTdnl4g6O-29" value="" style="endArrow=none;html=1;strokeWidth=1.5;strokeColor=#FF6666;" edge="1" parent="1">
          <mxGeometry width="50" height="50" relative="1" as="geometry">
            <mxPoint x="203.49" y="251" as="sourcePoint" />
            <mxPoint x="263.49" y="251" as="targetPoint" />
          </mxGeometry>
        </mxCell>
        <mxCell id="ncX0ooX-KExpTdnl4g6O-65" value="analogue pulses" style="text;html=1;align=center;verticalAlign=middle;resizable=0;points=[];autosize=1;strokeColor=none;fontSize=20;fontStyle=1" vertex="1" parent="1">
          <mxGeometry x="145" y="255" width="170" height="30" as="geometry" />
        </mxCell>
        <mxCell id="ncX0ooX-KExpTdnl4g6O-67" value="" style="group" vertex="1" connectable="0" parent="1">
          <mxGeometry x="770" y="140" width="360" height="50" as="geometry" />
        </mxCell>
        <mxCell id="ncX0ooX-KExpTdnl4g6O-73" value="" style="group" vertex="1" connectable="0" parent="ncX0ooX-KExpTdnl4g6O-67">
          <mxGeometry x="70" width="290" height="50" as="geometry" />
        </mxCell>
        <mxCell id="ncX0ooX-KExpTdnl4g6O-68" value="" style="pointerEvents=1;verticalLabelPosition=bottom;shadow=0;dashed=0;align=center;html=1;verticalAlign=top;shape=mxgraph.electrical.waveforms.pulse_1;" vertex="1" parent="ncX0ooX-KExpTdnl4g6O-73">
          <mxGeometry width="127.27375372087455" height="50" as="geometry" />
        </mxCell>
        <mxCell id="ncX0ooX-KExpTdnl4g6O-69" value="" style="pointerEvents=1;verticalLabelPosition=bottom;shadow=0;dashed=0;align=center;html=1;verticalAlign=top;shape=mxgraph.electrical.waveforms.pulse_1;" vertex="1" parent="ncX0ooX-KExpTdnl4g6O-73">
          <mxGeometry x="180.85434700790364" width="109.14565299209636" height="50" as="geometry" />
        </mxCell>
        <mxCell id="ncX0ooX-KExpTdnl4g6O-70" value="" style="endArrow=none;html=1;strokeWidth=1;entryX=0.006;entryY=1;entryDx=0;entryDy=0;entryPerimeter=0;exitX=1.003;exitY=1;exitDx=0;exitDy=0;exitPerimeter=0;" edge="1" parent="ncX0ooX-KExpTdnl4g6O-73">
          <mxGeometry width="50" height="50" relative="1" as="geometry">
            <mxPoint x="126.66334177301812" y="50" as="sourcePoint" />
            <mxPoint x="180.51698771683712" y="50" as="targetPoint" />
          </mxGeometry>
        </mxCell>
        <mxCell id="ncX0ooX-KExpTdnl4g6O-71" value="lpGBT data stream" style="text;html=1;align=center;verticalAlign=middle;resizable=0;points=[];autosize=1;strokeColor=none;fontSize=20;fontStyle=1" vertex="1" parent="1">
          <mxGeometry x="905" y="255" width="190" height="30" as="geometry" />
        </mxCell>
        <mxCell id="ncX0ooX-KExpTdnl4g6O-74" value="" style="shape=flexArrow;endArrow=classic;html=1;strokeColor=#000000;strokeWidth=1;fillColor=#000000;width=4;endSize=4.89;endWidth=12;" edge="1" parent="1">
          <mxGeometry width="50" height="50" relative="1" as="geometry">
            <mxPoint x="414" y="200" as="sourcePoint" />
            <mxPoint x="454" y="200" as="targetPoint" />
          </mxGeometry>
        </mxCell>
        <mxCell id="ncX0ooX-KExpTdnl4g6O-75" value="" style="shape=flexArrow;endArrow=classic;html=1;strokeColor=#000000;strokeWidth=1;fillColor=#000000;width=4;endSize=4.89;endWidth=12;" edge="1" parent="1">
          <mxGeometry width="50" height="50" relative="1" as="geometry">
            <mxPoint x="780" y="200" as="sourcePoint" />
            <mxPoint x="820" y="200" as="targetPoint" />
          </mxGeometry>
        </mxCell>
        <mxCell id="ncX0ooX-KExpTdnl4g6O-25" value="ASIC output" style="text;html=1;align=center;verticalAlign=middle;resizable=0;points=[];autosize=1;strokeColor=none;fontSize=20;fontStyle=1" vertex="1" parent="1">
          <mxGeometry x="550" y="254" width="130" height="30" as="geometry" />
        </mxCell>
        <mxCell id="ncX0ooX-KExpTdnl4g6O-32" value="" style="group" vertex="1" connectable="0" parent="1">
          <mxGeometry x="458" y="160" width="292.27" height="90" as="geometry" />
        </mxCell>
        <mxCell id="ncX0ooX-KExpTdnl4g6O-2" value="" style="pointerEvents=1;verticalLabelPosition=bottom;shadow=0;dashed=0;align=center;html=1;verticalAlign=top;shape=mxgraph.electrical.waveforms.pulse_1;" vertex="1" parent="ncX0ooX-KExpTdnl4g6O-32">
          <mxGeometry width="128.27" height="90" as="geometry" />
        </mxCell>
        <mxCell id="ncX0ooX-KExpTdnl4g6O-30" value="" style="pointerEvents=1;verticalLabelPosition=bottom;shadow=0;dashed=0;align=center;html=1;verticalAlign=top;shape=mxgraph.electrical.waveforms.pulse_1;" vertex="1" parent="ncX0ooX-KExpTdnl4g6O-32">
          <mxGeometry x="182.26999999999998" width="110" height="90" as="geometry" />
        </mxCell>
        <mxCell id="ncX0ooX-KExpTdnl4g6O-31" value="" style="endArrow=none;html=1;strokeWidth=1;entryX=0.006;entryY=1;entryDx=0;entryDy=0;entryPerimeter=0;exitX=1.003;exitY=1;exitDx=0;exitDy=0;exitPerimeter=0;" edge="1" parent="ncX0ooX-KExpTdnl4g6O-32">
          <mxGeometry width="50" height="50" relative="1" as="geometry">
            <mxPoint x="127.65481000000001" y="90" as="sourcePoint" />
            <mxPoint x="181.92999999999995" y="90" as="targetPoint" />
          </mxGeometry>
        </mxCell>
        <mxCell id="ncX0ooX-KExpTdnl4g6O-66" value="" style="group" vertex="1" connectable="0" parent="1">
          <mxGeometry x="460" y="60" width="299.27" height="80" as="geometry" />
        </mxCell>
        <mxCell id="ncX0ooX-KExpTdnl4g6O-23" value="" style="group" vertex="1" connectable="0" parent="ncX0ooX-KExpTdnl4g6O-66">
          <mxGeometry y="20" width="120" height="60" as="geometry" />
        </mxCell>
        <mxCell id="ncX0ooX-KExpTdnl4g6O-6" value="" style="pointerEvents=1;verticalLabelPosition=bottom;shadow=0;dashed=0;align=center;html=1;verticalAlign=top;shape=mxgraph.electrical.waveforms.pulse_1;" vertex="1" parent="ncX0ooX-KExpTdnl4g6O-23">
          <mxGeometry width="10" height="60" as="geometry" />
        </mxCell>
        <mxCell id="ncX0ooX-KExpTdnl4g6O-7" value="" style="pointerEvents=1;verticalLabelPosition=bottom;shadow=0;dashed=0;align=center;html=1;verticalAlign=top;shape=mxgraph.electrical.waveforms.pulse_1;" vertex="1" parent="ncX0ooX-KExpTdnl4g6O-23">
          <mxGeometry x="10" width="10" height="60" as="geometry" />
        </mxCell>
        <mxCell id="ncX0ooX-KExpTdnl4g6O-8" value="" style="pointerEvents=1;verticalLabelPosition=bottom;shadow=0;dashed=0;align=center;html=1;verticalAlign=top;shape=mxgraph.electrical.waveforms.pulse_1;" vertex="1" parent="ncX0ooX-KExpTdnl4g6O-23">
          <mxGeometry x="20" width="10" height="60" as="geometry" />
        </mxCell>
        <mxCell id="ncX0ooX-KExpTdnl4g6O-18" value="" style="pointerEvents=1;verticalLabelPosition=bottom;shadow=0;dashed=0;align=center;html=1;verticalAlign=top;shape=mxgraph.electrical.waveforms.pulse_1;" vertex="1" parent="ncX0ooX-KExpTdnl4g6O-23">
          <mxGeometry x="90" width="10" height="60" as="geometry" />
        </mxCell>
        <mxCell id="ncX0ooX-KExpTdnl4g6O-19" value="" style="pointerEvents=1;verticalLabelPosition=bottom;shadow=0;dashed=0;align=center;html=1;verticalAlign=top;shape=mxgraph.electrical.waveforms.pulse_1;" vertex="1" parent="ncX0ooX-KExpTdnl4g6O-23">
          <mxGeometry x="100" width="10" height="60" as="geometry" />
        </mxCell>
        <mxCell id="ncX0ooX-KExpTdnl4g6O-20" value="" style="pointerEvents=1;verticalLabelPosition=bottom;shadow=0;dashed=0;align=center;html=1;verticalAlign=top;shape=mxgraph.electrical.waveforms.pulse_1;" vertex="1" parent="ncX0ooX-KExpTdnl4g6O-23">
          <mxGeometry x="110" width="10" height="60" as="geometry" />
        </mxCell>
        <mxCell id="ncX0ooX-KExpTdnl4g6O-22" value="" style="group" vertex="1" connectable="0" parent="ncX0ooX-KExpTdnl4g6O-23">
          <mxGeometry x="30" width="60" height="60" as="geometry" />
        </mxCell>
        <mxCell id="ncX0ooX-KExpTdnl4g6O-9" value="" style="pointerEvents=1;verticalLabelPosition=bottom;shadow=0;dashed=0;align=center;html=1;verticalAlign=top;shape=mxgraph.electrical.waveforms.pulse_1;strokeColor=#FF0000;" vertex="1" parent="ncX0ooX-KExpTdnl4g6O-22">
          <mxGeometry width="10" height="60" as="geometry" />
        </mxCell>
        <mxCell id="ncX0ooX-KExpTdnl4g6O-12" value="" style="pointerEvents=1;verticalLabelPosition=bottom;shadow=0;dashed=0;align=center;html=1;verticalAlign=top;shape=mxgraph.electrical.waveforms.pulse_1;strokeColor=#FF0000;" vertex="1" parent="ncX0ooX-KExpTdnl4g6O-22">
          <mxGeometry x="10" width="10" height="60" as="geometry" />
        </mxCell>
        <mxCell id="ncX0ooX-KExpTdnl4g6O-13" value="" style="pointerEvents=1;verticalLabelPosition=bottom;shadow=0;dashed=0;align=center;html=1;verticalAlign=top;shape=mxgraph.electrical.waveforms.pulse_1;strokeColor=#FF0000;" vertex="1" parent="ncX0ooX-KExpTdnl4g6O-22">
          <mxGeometry x="20" width="10" height="60" as="geometry" />
        </mxCell>
        <mxCell id="ncX0ooX-KExpTdnl4g6O-14" value="" style="pointerEvents=1;verticalLabelPosition=bottom;shadow=0;dashed=0;align=center;html=1;verticalAlign=top;shape=mxgraph.electrical.waveforms.pulse_1;strokeColor=#FF0000;" vertex="1" parent="ncX0ooX-KExpTdnl4g6O-22">
          <mxGeometry x="30" width="10" height="60" as="geometry" />
        </mxCell>
        <mxCell id="ncX0ooX-KExpTdnl4g6O-15" value="" style="pointerEvents=1;verticalLabelPosition=bottom;shadow=0;dashed=0;align=center;html=1;verticalAlign=top;shape=mxgraph.electrical.waveforms.pulse_1;strokeColor=#FF0000;" vertex="1" parent="ncX0ooX-KExpTdnl4g6O-22">
          <mxGeometry x="40" width="10" height="60" as="geometry" />
        </mxCell>
        <mxCell id="ncX0ooX-KExpTdnl4g6O-17" value="" style="pointerEvents=1;verticalLabelPosition=bottom;shadow=0;dashed=0;align=center;html=1;verticalAlign=top;shape=mxgraph.electrical.waveforms.pulse_1;strokeColor=#FF0000;" vertex="1" parent="ncX0ooX-KExpTdnl4g6O-22">
          <mxGeometry x="50" width="10" height="60" as="geometry" />
        </mxCell>
        <mxCell id="ncX0ooX-KExpTdnl4g6O-24" value="&lt;font style=&quot;font-size: 20px&quot;&gt;&lt;b&gt;lpGBT sampling clock&lt;/b&gt;&lt;/font&gt;" style="text;html=1;align=center;verticalAlign=middle;resizable=0;points=[];autosize=1;strokeColor=none;" vertex="1" parent="ncX0ooX-KExpTdnl4g6O-66">
          <mxGeometry x="40" width="230" height="20" as="geometry" />
        </mxCell>
        <mxCell id="ncX0ooX-KExpTdnl4g6O-47" value="" style="pointerEvents=1;verticalLabelPosition=bottom;shadow=0;dashed=0;align=center;html=1;verticalAlign=top;shape=mxgraph.electrical.waveforms.pulse_1;" vertex="1" parent="ncX0ooX-KExpTdnl4g6O-66">
          <mxGeometry x="120" y="20" width="10" height="60" as="geometry" />
        </mxCell>
        <mxCell id="ncX0ooX-KExpTdnl4g6O-48" value="" style="pointerEvents=1;verticalLabelPosition=bottom;shadow=0;dashed=0;align=center;html=1;verticalAlign=top;shape=mxgraph.electrical.waveforms.pulse_1;" vertex="1" parent="ncX0ooX-KExpTdnl4g6O-66">
          <mxGeometry x="130" y="20" width="10" height="60" as="geometry" />
        </mxCell>
        <mxCell id="ncX0ooX-KExpTdnl4g6O-49" value="" style="pointerEvents=1;verticalLabelPosition=bottom;shadow=0;dashed=0;align=center;html=1;verticalAlign=top;shape=mxgraph.electrical.waveforms.pulse_1;" vertex="1" parent="ncX0ooX-KExpTdnl4g6O-66">
          <mxGeometry x="140" y="20" width="10" height="60" as="geometry" />
        </mxCell>
        <mxCell id="ncX0ooX-KExpTdnl4g6O-50" value="" style="pointerEvents=1;verticalLabelPosition=bottom;shadow=0;dashed=0;align=center;html=1;verticalAlign=top;shape=mxgraph.electrical.waveforms.pulse_1;" vertex="1" parent="ncX0ooX-KExpTdnl4g6O-66">
          <mxGeometry x="150" y="20" width="10" height="60" as="geometry" />
        </mxCell>
        <mxCell id="ncX0ooX-KExpTdnl4g6O-51" value="" style="pointerEvents=1;verticalLabelPosition=bottom;shadow=0;dashed=0;align=center;html=1;verticalAlign=top;shape=mxgraph.electrical.waveforms.pulse_1;" vertex="1" parent="ncX0ooX-KExpTdnl4g6O-66">
          <mxGeometry x="160" y="20" width="10" height="60" as="geometry" />
        </mxCell>
        <mxCell id="ncX0ooX-KExpTdnl4g6O-52" value="" style="pointerEvents=1;verticalLabelPosition=bottom;shadow=0;dashed=0;align=center;html=1;verticalAlign=top;shape=mxgraph.electrical.waveforms.pulse_1;" vertex="1" parent="ncX0ooX-KExpTdnl4g6O-66">
          <mxGeometry x="170" y="20" width="10" height="60" as="geometry" />
        </mxCell>
        <mxCell id="ncX0ooX-KExpTdnl4g6O-53" value="" style="pointerEvents=1;verticalLabelPosition=bottom;shadow=0;dashed=0;align=center;html=1;verticalAlign=top;shape=mxgraph.electrical.waveforms.pulse_1;" vertex="1" parent="ncX0ooX-KExpTdnl4g6O-66">
          <mxGeometry x="180" y="20" width="10" height="60" as="geometry" />
        </mxCell>
        <mxCell id="ncX0ooX-KExpTdnl4g6O-54" value="" style="pointerEvents=1;verticalLabelPosition=bottom;shadow=0;dashed=0;align=center;html=1;verticalAlign=top;shape=mxgraph.electrical.waveforms.pulse_1;" vertex="1" parent="ncX0ooX-KExpTdnl4g6O-66">
          <mxGeometry x="190" y="20" width="10" height="60" as="geometry" />
        </mxCell>
        <mxCell id="ncX0ooX-KExpTdnl4g6O-55" value="" style="pointerEvents=1;verticalLabelPosition=bottom;shadow=0;dashed=0;align=center;html=1;verticalAlign=top;shape=mxgraph.electrical.waveforms.pulse_1;" vertex="1" parent="ncX0ooX-KExpTdnl4g6O-66">
          <mxGeometry x="200" y="20" width="10" height="60" as="geometry" />
        </mxCell>
        <mxCell id="ncX0ooX-KExpTdnl4g6O-56" value="" style="pointerEvents=1;verticalLabelPosition=bottom;shadow=0;dashed=0;align=center;html=1;verticalAlign=top;shape=mxgraph.electrical.waveforms.pulse_1;strokeColor=#FF0000;" vertex="1" parent="ncX0ooX-KExpTdnl4g6O-66">
          <mxGeometry x="210" y="20" width="10" height="60" as="geometry" />
        </mxCell>
        <mxCell id="ncX0ooX-KExpTdnl4g6O-57" value="" style="pointerEvents=1;verticalLabelPosition=bottom;shadow=0;dashed=0;align=center;html=1;verticalAlign=top;shape=mxgraph.electrical.waveforms.pulse_1;strokeColor=#FF0000;" vertex="1" parent="ncX0ooX-KExpTdnl4g6O-66">
          <mxGeometry x="220" y="20" width="10" height="60" as="geometry" />
        </mxCell>
        <mxCell id="ncX0ooX-KExpTdnl4g6O-58" value="" style="pointerEvents=1;verticalLabelPosition=bottom;shadow=0;dashed=0;align=center;html=1;verticalAlign=top;shape=mxgraph.electrical.waveforms.pulse_1;strokeColor=#FF0000;" vertex="1" parent="ncX0ooX-KExpTdnl4g6O-66">
          <mxGeometry x="230" y="20" width="10" height="60" as="geometry" />
        </mxCell>
        <mxCell id="ncX0ooX-KExpTdnl4g6O-59" value="" style="pointerEvents=1;verticalLabelPosition=bottom;shadow=0;dashed=0;align=center;html=1;verticalAlign=top;shape=mxgraph.electrical.waveforms.pulse_1;strokeColor=#FF0000;" vertex="1" parent="ncX0ooX-KExpTdnl4g6O-66">
          <mxGeometry x="240" y="20" width="10" height="60" as="geometry" />
        </mxCell>
        <mxCell id="ncX0ooX-KExpTdnl4g6O-60" value="" style="pointerEvents=1;verticalLabelPosition=bottom;shadow=0;dashed=0;align=center;html=1;verticalAlign=top;shape=mxgraph.electrical.waveforms.pulse_1;strokeColor=#FF0000;" vertex="1" parent="ncX0ooX-KExpTdnl4g6O-66">
          <mxGeometry x="250" y="20" width="10" height="60" as="geometry" />
        </mxCell>
        <mxCell id="ncX0ooX-KExpTdnl4g6O-61" value="" style="pointerEvents=1;verticalLabelPosition=bottom;shadow=0;dashed=0;align=center;html=1;verticalAlign=top;shape=mxgraph.electrical.waveforms.pulse_1;" vertex="1" parent="ncX0ooX-KExpTdnl4g6O-66">
          <mxGeometry x="260" y="20" width="10" height="60" as="geometry" />
        </mxCell>
        <mxCell id="ncX0ooX-KExpTdnl4g6O-62" value="" style="pointerEvents=1;verticalLabelPosition=bottom;shadow=0;dashed=0;align=center;html=1;verticalAlign=top;shape=mxgraph.electrical.waveforms.pulse_1;" vertex="1" parent="ncX0ooX-KExpTdnl4g6O-66">
          <mxGeometry x="270" y="20" width="10" height="60" as="geometry" />
        </mxCell>
        <mxCell id="ncX0ooX-KExpTdnl4g6O-63" value="" style="pointerEvents=1;verticalLabelPosition=bottom;shadow=0;dashed=0;align=center;html=1;verticalAlign=top;shape=mxgraph.electrical.waveforms.pulse_1;" vertex="1" parent="ncX0ooX-KExpTdnl4g6O-66">
          <mxGeometry x="280" y="20" width="10" height="60" as="geometry" />
        </mxCell>
        <mxCell id="ncX0ooX-KExpTdnl4g6O-64" value="" style="pointerEvents=1;verticalLabelPosition=bottom;shadow=0;dashed=0;align=center;html=1;verticalAlign=top;shape=mxgraph.electrical.waveforms.pulse_1;" vertex="1" parent="ncX0ooX-KExpTdnl4g6O-66">
          <mxGeometry x="289.27" y="20" width="10" height="60" as="geometry" />
        </mxCell>
      </root>
    </mxGraphModel>
  </diagram>
</mxfile>
